<?xml version="1.0" encoding="UTF-8"?>
<svg id="Layer_1" data-name="Layer 1" xmlns="http://www.w3.org/2000/svg" viewBox="0 0 400 400">
  <defs>
    <style>
      .cls-1 {
        fill: #004667;
      }

      .cls-2 {
        fill: #009dd6;
      }

      .cls-3 {
        fill: #b44b00;
      }
    </style>
  </defs>
  <path class="cls-1" d="M145.89,257.25c-27.09,7.48-47.48,9.44-74.76,16.06-.82.2-1.54.5-2.21.75,26.33,48.64,77.81,81.68,137.01,81.68,34.99,0,67.28-11.54,93.28-31.02-1.7-.49-3.37-.72-4.97-1.14-22.03-5.7-43.97-11.59-64.38-20.9-14.89-6.79-17.32-10.15-4.05-20.16,9.15-6.9,21.38-11.22,30.32-18.63,9.22-7.64,10.74-14.76-.53-20.93-8.1-4.44-17.17-7.17-26.34-9.57-56.01-14.65-178.98-33.1-178.98-33.1.05,1.38,0,0,0,3.11.03,1.58.03,3.55.11,5.12,2.89,1.02,3.58,1.11,6.09,1.61,37.14,7.4,57.42,13.71,88.85,25.14,6.61,2.41,15.81,4.44,15.54,11.89-.23,6.42-8.83,8.41-14.97,10.11Z"/>
  <path class="cls-3" d="M146.73,239.71c-.89-.3-1.81-.62-2.69-.93-3.1-1.13-6.08-2.2-8.99-3.23,3.2,6.31,7.25,12.2,12.08,17.48,4.5-1.25,9.87-2.97,9.98-6.02.12-3.46-4.03-5.13-10.39-7.29Z"/>
  <path class="cls-3" d="M230.69,229.87c8.89,2.34,18.26,5.16,26.71,9.78,4.82,2.64,7.89,5.7,9.19,9.12,4.59-5.78,8.44-12.32,11.35-19.53l-36.38-14.66c-2.4,5.98-6.16,11.2-10.88,15.28Z"/>
  <path class="cls-3" d="M168.97,215.53c-2-4.69-3.1-9.85-3.1-15.26,0-21.6,17.57-39.11,39.25-39.11,16.47,0,30.57,10.11,36.3,24.32l36.38-14.66c-7.88-19.53-23.52-35.11-43.24-43.06-40.19-16.2-85.95,3.13-102.21,43.18-4.89,12.05-6.55,24.6-5.39,36.7,14.48,2.49,28.44,5.11,42.01,7.89Z"/>
  <path class="cls-2" d="M128.16,207.85c-.26-2.57-.39-5.18-.39-7.81,0-43,34.86-77.87,77.87-77.87,32.67,0,60.64,20.13,72.2,48.66l72.17-29.19c-15.82-39.12-46.85-70.14-85.97-85.97-79.73-32.25-170.51,6.24-202.77,85.97-7.51,18.55-11.05,36.27-11.27,55.14,9.29.78,56.06,7.25,78.16,11.07Z"/>
  <path class="cls-2" d="M54.19,213.54c-1.14-.16-2.51-.36-3.8-.9,1.67,20.36,7.33,40.13,16.52,58.16l.72-.27.37-.14c.61-.23,1.37-.52,2.25-.73,12.13-2.94,22.96-4.98,33.44-6.95,13.48-2.54,26.22-4.93,41.2-9.07l1.01-.28c.76-.21,1.56-.43,2.38-.66-4.57-4.98-8.51-10.56-11.67-16.6-27.03-9.65-46.79-15.51-80.86-22.31-.5-.1-1.01-.17-1.56-.25Z"/>
  <path class="cls-2" d="M266.51,248.57c.39.98.65,1.98.75,3.02.47,4.96-2.38,9.92-8.73,15.18-5.06,4.19-11.02,7.4-16.78,10.5-4.96,2.67-9.55,5.05-13.67,8.23-4.85,3.75-7.05,6.25-7.19,6.81,1.14,3.56,7.22,5.13,10.77,7.06,16.08,8.73,34.68,13.36,52.68,17.83,3.56.89,7.24,1.8,10.85,2.74.6.16,1.25.29,1.94.43,1,.21,2.04.42,3.14.74l2.46.72c20.31-16.16,36.85-37.61,47.28-63.39l-72.17-29.19c-2.84,7.01-6.67,13.51-11.32,19.33Z"/>
</svg>