<?xml version="1.0" encoding="UTF-8"?>
<svg id="Layer_1" data-name="Layer 1" xmlns="http://www.w3.org/2000/svg" viewBox="0 0 1800 450">
  <defs>
    <style>
      .cls-1 {
        letter-spacing: 0em;
      }

      .cls-2, .cls-3 {
        fill: #004667;
      }

      .cls-4, .cls-5 {
        fill: #009dd6;
      }

      .cls-3 {
        font-size: 101px;
      }

      .cls-3, .cls-5, .cls-6 {
        font-family: Jost-Regular, Jost;
        font-variation-settings: 'wght' 400;
      }

      .cls-5 {
        font-size: 100px;
      }

      .cls-6 {
        font-size: 60px;
      }

      .cls-6, .cls-7 {
        fill: #b44b00;
      }

      .cls-8 {
        letter-spacing: -.03em;
      }
    </style>
  </defs>
  <text class="cls-3" transform="translate(469.35 260.59)"><tspan x="0" y="0">CONFLUENCE</tspan></text>
  <g>
    <path class="cls-2" d="M242.31,284.88c-28.33,7.82-49.67,9.87-78.19,16.79-.86.21-1.61.52-2.32.78,27.54,50.88,81.39,85.43,143.3,85.43,36.59,0,70.37-12.07,97.56-32.45-1.77-.52-3.52-.76-5.2-1.19-23.04-5.96-46.71-10.67-67.34-21.86-15.61-8.47-18.12-10.61-4.23-21.09,9.57-7.21,22.36-11.74,31.72-19.49,9.65-7.99,11.23-15.44-.56-21.89-8.48-4.64-17.96-7.5-27.55-10.01-58.58-15.32-187.2-34.62-187.2-34.62.05,1.44,0,0,0,3.25.03,1.66.03,3.71.12,5.35,3.03,1.07,3.75,1.16,6.37,1.69,38.84,7.74,60.06,14.34,92.93,26.3,6.92,2.52,16.54,4.64,16.26,12.43-.24,6.72-9.23,8.8-15.66,10.58Z"/>
    <path class="cls-7" d="M243.19,266.54c-.93-.32-1.89-.64-2.81-.98-3.24-1.18-6.36-2.3-9.4-3.38,3.34,6.6,7.58,12.76,12.63,18.28,4.71-1.31,10.33-3.11,10.44-6.29.13-3.62-4.22-5.37-10.87-7.63Z"/>
    <path class="cls-7" d="M331,256.25c9.3,2.45,19.1,5.39,27.94,10.23,5.04,2.76,8.26,5.96,9.62,9.54,4.8-6.05,8.83-12.88,11.88-20.42l-38.05-15.34c-2.51,6.25-6.44,11.71-11.38,15.99Z"/>
    <path class="cls-7" d="M266.45,241.25c-2.09-4.9-3.25-10.3-3.25-15.96,0-22.59,18.38-40.9,41.05-40.9,17.23,0,31.97,10.57,37.97,25.44l38.05-15.34c-8.25-20.42-24.6-36.72-45.23-45.03-42.04-16.94-89.9,3.28-106.9,45.16-5.12,12.6-6.85,25.73-5.64,38.39,15.14,2.61,29.75,5.35,43.94,8.25Z"/>
    <path class="cls-4" d="M223.76,233.21c-.27-2.69-.41-5.41-.41-8.17,0-44.98,36.46-81.44,81.44-81.44,34.18,0,63.43,21.05,75.51,50.89l75.48-30.53c-16.55-40.92-49-73.36-89.92-89.92-83.39-33.73-178.34,6.52-212.08,89.92-7.85,19.41-11.56,37.93-11.79,57.67,9.71.81,58.64,7.59,81.75,11.58Z"/>
    <path class="cls-4" d="M146.39,239.16c-1.19-.17-2.62-.38-3.97-.94,1.75,21.3,7.67,41.97,17.28,60.83l.75-.28.39-.15c.64-.24,1.43-.54,2.36-.77,12.68-3.08,24.02-5.21,34.98-7.27,14.1-2.65,27.42-5.16,43.09-9.49l1.05-.29c.79-.22,1.63-.45,2.49-.69-4.78-5.21-8.9-11.04-12.21-17.36-28.27-10.1-48.93-16.23-84.58-23.33-.52-.1-1.06-.18-1.63-.26Z"/>
    <path class="cls-4" d="M368.47,275.8c.41,1.02.68,2.07.78,3.15.5,5.18-2.49,10.38-9.13,15.88-5.29,4.38-11.53,7.74-17.55,10.99-5.18,2.79-10.08,5.43-14.3,8.61-6.31,4.76-7.38,6.54-7.52,7.13.69,1.64,7.55,5.37,11.26,7.38,16.82,9.13,36.28,13.97,55.1,18.65,3.72.93,7.57,1.88,11.35,2.86.63.16,1.31.3,2.03.45,1.05.21,2.13.44,3.28.77l2.58.75c21.24-16.9,38.55-39.34,49.45-66.3l-75.48-30.53c-2.97,7.33-6.98,14.13-11.84,20.22Z"/>
  </g>
  <text class="cls-6" transform="translate(751.74 329.78)"><tspan x="0" y="0">the confluence of people and place</tspan></text>
  <text class="cls-5" transform="translate(1130.99 260.59)"><tspan x="0" y="0">CO</tspan><tspan class="cls-8" x="147.5" y="0">L</tspan><tspan class="cls-1" x="189.5" y="0">ORADO</tspan></text>
</svg>