<?xml version="1.0" encoding="UTF-8"?>
<svg id="Layer_1" data-name="Layer 1" xmlns="http://www.w3.org/2000/svg" viewBox="0 0 1800 1200">
  <defs>
    <style>
      .cls-1 {
        font-family: Jost-Regular, Jost;
        font-variation-settings: 'wght' 400;
      }

      .cls-2, .cls-3 {
        fill: #004667;
      }

      .cls-4 {
        fill: #009dd6;
      }

      .cls-5 {
        letter-spacing: 0em;
      }

      .cls-5, .cls-6, .cls-7 {
        font-size: 100px;
      }

      .cls-5, .cls-6, .cls-7, .cls-8 {
        fill: #b44b00;
      }

      .cls-3 {
        font-size: 101px;
      }

      .cls-7 {
        letter-spacing: -.03em;
      }
    </style>
  </defs>
  <text class="cls-1" transform="translate(305.68 920.26)"><tspan class="cls-3" x="0" y="0">CONFLUENCE</tspan><tspan class="cls-6" x="644.98" y="0">CO</tspan><tspan class="cls-7" x="792.48" y="0">L</tspan><tspan class="cls-5" x="834.48" y="0">ORADO</tspan></text>
  <g>
    <path class="cls-2" d="M827.99,676.25c-36.1,9.97-63.28,12.58-99.63,21.4-1.09.27-2.05.66-2.95,1,35.1,64.83,103.7,108.85,182.59,108.85,46.63,0,89.66-15.38,124.31-41.35-2.26-.66-4.49-.97-6.63-1.52-29.36-7.6-59.52-13.59-85.8-27.86-19.89-10.8-23.09-13.52-5.39-26.87,12.19-9.19,28.49-14.96,40.41-24.83,12.29-10.18,14.31-19.67-.71-27.89-10.8-5.91-22.88-9.56-35.11-12.76-74.65-19.53-238.53-44.12-238.53-44.12.07,1.84,0,0,0,4.14.04,2.11.04,4.73.15,6.82,3.86,1.36,4.77,1.48,8.12,2.15,49.49,9.86,76.53,18.27,118.41,33.51,8.82,3.21,21.07,5.92,20.71,15.84-.31,8.56-11.76,11.21-19.96,13.48Z"/>
    <path class="cls-8" d="M829.1,652.88c-1.19-.4-2.41-.82-3.58-1.24-4.13-1.5-8.1-2.93-11.98-4.31,4.26,8.41,9.66,16.26,16.1,23.29,6-1.67,13.16-3.96,13.31-8.02.17-4.61-5.37-6.84-13.85-9.72Z"/>
    <path class="cls-8" d="M940.99,639.76c11.85,3.12,24.33,6.87,35.6,13.04,6.42,3.52,10.52,7.59,12.25,12.15,6.11-7.71,11.25-16.42,15.13-26.02l-48.48-19.54c-3.19,7.97-8.2,14.92-14.5,20.37Z"/>
    <path class="cls-8" d="M858.74,620.65c-2.66-6.25-4.13-13.12-4.13-20.34,0-28.78,23.42-52.12,52.31-52.12,21.95,0,40.74,13.47,48.38,32.41l48.48-19.54c-10.51-26.02-31.35-46.79-57.63-57.38-53.56-21.59-114.55,4.17-136.21,57.54-6.52,16.06-8.73,32.79-7.18,48.92,19.29,3.32,37.9,6.82,55.99,10.51Z"/>
    <g>
      <path class="cls-4" d="M804.35,610.41c-.34-3.42-.52-6.9-.52-10.41,0-57.31,46.46-103.77,103.77-103.77,43.55,0,80.82,26.83,96.22,64.85l96.18-38.91c-21.09-52.14-62.43-93.48-114.57-114.57-106.26-42.98-227.25,8.31-270.23,114.57-10,24.73-14.73,48.33-15.02,73.48,12.38,1.04,74.72,9.67,104.16,14.76Z"/>
      <path class="cls-4" d="M705.76,618c-1.52-.22-3.34-.48-5.06-1.2,2.23,27.14,9.77,53.48,22.01,77.51l.96-.35.5-.19c.81-.31,1.82-.69,3-.98,16.16-3.92,30.6-6.64,44.57-9.27,17.97-3.38,34.94-6.58,54.91-12.09l1.34-.37c1.01-.28,2.08-.57,3.17-.89-6.1-6.64-11.34-14.07-15.55-22.12-36.02-12.87-62.35-20.68-107.77-29.73-.66-.13-1.35-.23-2.08-.33Z"/>
      <path class="cls-4" d="M988.74,664.68c.52,1.3.86,2.64.99,4.02.63,6.61-3.17,13.22-11.64,20.23-6.75,5.59-14.69,9.86-22.37,14-6.61,3.56-12.85,6.92-18.22,10.97-8.04,6.07-9.4,8.33-9.58,9.08.88,2.09,9.62,6.84,14.35,9.4,21.43,11.63,46.22,17.8,70.2,23.76,4.74,1.18,9.65,2.4,14.47,3.65.8.21,1.67.39,2.59.57,1.33.27,2.71.56,4.18.98l3.28.95c27.06-21.53,49.12-50.13,63.01-84.48l-96.18-38.91c-3.78,9.34-8.89,18-15.08,25.76Z"/>
    </g>
  </g>
</svg>