<svg xmlns="http://www.w3.org/2000/svg" viewBox="0 0 400 400" role="img" aria-label="Confluence Colorado">
  <rect width="400" height="400" rx="80" fill="#004667"/>
  <g transform="translate(0,-55)">
    <path fill="#ffffff" d="M145.89,257.25c-27.09,7.48-47.48,9.44-74.76,16.06-.82.2-1.54.5-2.21.75,26.33,48.64,77.81,81.68,137.01,81.68,34.99,0,67.28-11.54,93.28-31.02-1.7-.49-3.37-.72-4.97-1.14-22.03-5.7-43.97-11.59-64.38-20.9-14.89-6.79-17.32-10.15-4.05-20.16,9.15-6.9,21.38-11.22,30.32-18.63,9.22-7.64,10.74-14.76-.53-20.93-8.1-4.44-17.17-7.17-26.34-9.57-56.01-14.65-178.98-33.1-178.98-33.1.05,1.38,0,0,0,3.11.03,1.58.03,3.55.11,5.12,2.89,1.02,3.58,1.11,6.09,1.61,37.14,7.4,57.42,13.71,88.85,25.14,6.61,2.41,15.81,4.44,15.54,11.89-.23,6.42-8.83,8.41-14.97,10.11Z"/>
  </g>
</svg>
